<?xml version="1.0" encoding="UTF-8"?>
<svg width="1024px" height="1024px" viewBox="0 0 1024 1024" version="1.1" xmlns="http://www.w3.org/2000/svg" xmlns:xlink="http://www.w3.org/1999/xlink">
    <title>SetYourIntention</title>
    <g id="Page-1" stroke="none" stroke-width="1" fill="none" fill-rule="evenodd">
        <g id="Mask" fill="#CCCCCC">
            <rect id="Rectangle" stroke="#979797" opacity="0.328385126" x="0.5" y="0.5" width="1023" height="1023"></rect>
            <polygon id="6" fill-rule="nonzero" opacity="0.595608666" points="0 409.76 39 394.279 77 394.279 121 374.154 157 366.413 175 355.577 192 354.029 221 347.837 250 338.548 273 332.356 295 310.683 318 296.75 342 285.913 365 271.981 390 248.76 411 227.087 452 200.769 474 185.288 495 177.548 512 176 522 183.74 542 189.933 572 194.577 585 208.51 606 227.087 626 227.087 645 245.663 670 262.692 699 281.269 725 296.75 759 321.519 787 338.548 823 364.865 854 394.279 876 406.663 902 419.048 926 434.529 945 436.077 960 451.558 986 460.846 1024 477.875 1024 1024 0 1024"></polygon>
            <path d="M0,513.231221 L17,499.944947 L34,490.747737 L73,474.3954 L93,463.154147 L106,449.867874 L108,434.538537 L135,424.318326 L192,422.274284 L221,428.406411 L245,416.143137 L275,405.922926 L317,411.033032 L345,412.055053 C345,412.055053 365.22,407.189684 369,405.922926 C372.78,404.657147 391,389.571568 391,389.571568 L418,368.110105 L464,363 L493,373.220211 L512,388.549547 L554,406.944947 L570,431.472474 L614,456 L642,470.307316 L701,490.747737 L769,519.362368 L823,537.757768 L847,559.220211 L899,579.659653 L939,593.966968 L999,616.450453 L1024,617.472474 L1024,1024 L0,1024 L0,513.231221 Z" id="5" fill-rule="nonzero" opacity="0.203598749"></path>
            <path d="M0,561.081712 L26,578.236057 L41,578.236057 L52,578.236057 L67,586.30869 L78,592.363165 L106,569.154345 L122,568.145266 L153,552 L175,564.108949 L187,562.090791 L218,578.236057 L235,586.30869 L246,578.236057 L265,585.299611 L289,590.345006 L295,588.326848 L322,598.417639 L344,598.417639 L387,622.635538 L406,634.744488 L436,636.762646 L464,654.92607 L481,662.998703 L512,662.998703 L538,656.944228 L559,647.862516 L582,661.989624 L602,673.089494 L611,687.216602 L629,676.116732 L646,687.216602 L687,699.325551 L713,708.407263 L745,718.498054 L769,719.507134 L800,706.389105 L822,687.216602 L835,687.216602 L857,673.089494 L882,660.980545 L888,662.998703 L918,647.862516 L946,635.753567 L967,643.8262 C967,643.8262 981.991,654.635455 988,654.92607 C994.009,655.216685 1024,655.935149 1024,655.935149 L1024,1024 L0,1024 L0,561.081712 Z" id="4" fill-rule="nonzero" opacity="0.4043986"></path>
            <polygon id="3" fill-rule="nonzero" opacity="0.601613363" points="0 754.153355 36 744.607029 66 734 117 739.303514 145 746.728435 184 758.396166 231 775.367412 278 789.15655 316 804.00639 341 808.249201 351 819.916933 367 823.099042 390 819.916933 419 823.099042 441 835.827476 480 833.70607 512 832.645367 542 835.827476 584 834.766773 656 824.159744 716 816.734824 750 814.613419 782 827.341853 839 833.70607 906 835.827476 950 832.645367 977 828.402556 1000 812.492013 1024 816.734824 1024 1024 0 1024"></polygon>
        </g>
    </g>
</svg>